<svg id="Layer_1" data-name="Layer 1" xmlns="http://www.w3.org/2000/svg" width="400" height="400" viewBox="0 0 400 400"><defs><style>.cls-1{fill:#9ece6c;}.cls-2{fill:#fff;}</style></defs><g id="FULL_MARK" data-name="FULL MARK"><path class="cls-1" d="M59.1884,191.5888V168.1326c.5049-.2957.3158-.8086.3606-1.2308.5776-5.4336.9765-10.8921,1.7521-16.2969a123.5421,123.5421,0,0,1,3.3933-15.9738A121.884,121.884,0,0,1,72.7278,113.47,94.2121,94.2121,0,0,1,92.6624,86.5025a95.49,95.49,0,0,1,10.2352-8.3152,112.214,112.214,0,0,1,23.379-12.514c4.3966-1.7625,8.9324-3.1013,13.4787-4.431a121.89,121.89,0,0,1,12.7865-3.087c6.4675-1.154,12.9858-1.9746,19.5317-2.6572A171.6374,171.6374,0,0,1,189.39,54.4727c34.6452-.0964,69.2909-.0419,103.9364-.0733,1.2463-.0012,1.5229.4259,1.5054,1.58-.0608,4.01.0419,8.0223-.0369,12.0314A186.5755,186.5755,0,0,1,293,91.7993c-.2863,1.9268-.3587,1.92,1.5958,1.92,13.31.0014,26.6192.0207,39.9286-.0284,1.3958-.0052,1.7751.3856,1.77,1.782q-.0761,22.0035-.01,44.0072c.0026,1.149-.251,1.5641-1.5012,1.559q-17.7543-.0727-35.5089-.0014c-1.2427.0049-1.53-.4156-1.52-1.5677.0474-5.4825-.0312-10.9665.0558-16.4481.0229-1.4451-.4468-1.792-1.8042-1.747-2.8416.0943-5.6927.1184-8.5315-.012a1.9276,1.9276,0,0,0-2.1763,1.5239,102.0621,102.0621,0,0,1-8.0777,16.5576A95.5436,95.5436,0,0,1,261.24,159.18a101.1992,101.1992,0,0,1-29.79,19.2993,126.65,126.65,0,0,1-24.4218,7.8179q-9.5028,2.0081-19.107,3.3256c-7.05.9553-14.1417,1.274-21.2294,1.6344-8.4238.4283-16.86.1409-25.29.1673-1.22.0038-1.6855.3095-1.6912,1.6108-.0122,2.7873-.1384,5.5793-.3579,8.3583-.1077,1.364.3055,1.7144,1.653,1.7144q77.5691-.0007,155.138.0993c1.4125.0019,1.6693-.4684,1.6578-1.7412-.0572-6.2947.0007-12.59-.0492-18.8853-.01-1.1983.2359-1.6785,1.5733-1.6728q17.678.0765,35.3564.0017c1.2886-.0051,1.6091.3936,1.606,1.6373q-.0571,23.2982.0008,46.5965c.003,1.2047-.3495,1.6834-1.5413,1.5277a8.2892,8.2892,0,0,0-1.0659-.0066q-115.0617,0-230.1235,0a10.16,10.16,0,0,0-1.2182.0071c-1.195.1453-1.5894-.3509-1.5746-1.5471.0542-4.3653-.0455-8.733.0323-13.0976a176.5441,176.5441,0,0,1,1.6718-22.2744c.319-2.1947.3286-2.2688-1.8418-2.2691q-19.9642-.0032-39.9287.0035C60.1953,191.4869,59.6919,191.5532,59.1884,191.5888ZM233.3169,93.72c8.8749,0,14.92.0015,20.965-.0019.6951,0,1.4141.1617,1.4462-.9894.08-2.8888.3072-5.7733.4037-8.6619.0685-2.0536.0164-2.0589-2.0456-2.059q-37.87-.0012-75.7409.0076a16.2511,16.2511,0,0,0-2.5758.1961c-4.345.7018-8.7308,1.0836-13.0713,1.863A99.7,99.7,0,0,0,148.74,87.4331a91.316,91.316,0,0,0-15.0076,6.3431,65.7694,65.7694,0,0,0-17.7872,13.8392,67.5066,67.5066,0,0,0-8.7,12.5214,76.4663,76.4663,0,0,0-5.8,14.38,72.3012,72.3012,0,0,0-2.6937,13.486c-.5273,4.7389-.9463,9.4769-1.092,14.243-.0355,1.1614.2644,1.6036,1.5116,1.5667,2.9945-.0885,5.9961-.1028,8.9891.0086a1.81,1.81,0,0,0,2.0018-1.3662,100.9878,100.9878,0,0,1,8.0744-16.6923,92.4568,92.4568,0,0,1,13.0774-17.0135A97.3211,97.3211,0,0,1,150.6321,113.5a122.7507,122.7507,0,0,1,21.8564-10.2477,149.03,149.03,0,0,1,21.6263-5.7634,169.9286,169.9286,0,0,1,19.3866-2.6322C221.043,94.2224,228.5832,93.8024,233.3169,93.72Zm-86.5844,70.0643h1.9316c7.5673,0,15.1346.0264,22.7017-.0074a109.6,109.6,0,0,0,22.29-2.5549,109.8636,109.8636,0,0,0,17.2582-5,71.1859,71.1859,0,0,0,26.1144-17.08,64.3741,64.3741,0,0,0,11.0219-16.1822c.8035-1.6282.7623-1.6539-1.0413-1.6543-8.1766-.002-16.3542-.0722-24.53.0245a107.846,107.846,0,0,0-16.3036,1.683,92.1961,92.1961,0,0,0-11.0679,2.4561A110.28,110.28,0,0,0,180.4668,130.6a71.8812,71.8812,0,0,0-17.6683,11.2342A63.8061,63.8061,0,0,0,146.7325,163.7843Z"/><path class="cls-2" d="M155.41,259.322c8.662,0,17.324.0126,25.9859-.0213.79-.0031.9452.2221.9149.9536-.2228,5.38-1.8122,10.1151-6.3,13.4852a22.0343,22.0343,0,0,1-9.59,3.8155,61.6188,61.6188,0,0,1-11.0006.6773c-5.87-.0051-11.7408-.0018-17.611-.0366-.6352-.0038-.6728.2544-.6707.7537.015,3.6565-.01,7.3133.0244,10.9695.0061.6536-.1668.8157-.8115.805-2.4454-.04-4.892-.03-7.3378-.0048-.5139.0054-.69-.1054-.6889-.66q.0259-15.0292-.0041-30.0585c-.0017-.7212.3485-.6848.845-.6844Q142.2871,259.3279,155.41,259.322Zm16.9317,6.3981a1.0585,1.0585,0,0,0-.2348-.0846q-17.2107-.0054-34.4214-.0186c-.5018-.0007-.55.1973-.5459.6019.0156,1.6111.0435,3.2236-.0111,4.8329-.0234.689.187.8418.8512.84,7.5913-.0238,15.1828-.0157,22.7741-.0147a19.6337,19.6337,0,0,0,4.1965-.387A9.6582,9.6582,0,0,0,172.3413,265.72Z"/><path class="cls-2" d="M101.4888,259.322q6.4743,0,12.9486.004c.3081,0,.6916-.1547.7016.4462a42.1055,42.1055,0,0,1-1.6442,13.8065c-2.6643,8.2452-8.4236,13.1958-16.604,15.5379a42.1594,42.1594,0,0,1-11.49,1.5821c-7.7979.03-15.5959,0-23.3938.0246-.6737.0021-.8483-.1667-.8559-.8474a41.4516,41.4516,0,0,1,1.669-13.459c2.6625-8.1687,8.3756-13.0883,16.4795-15.4419a46.0209,46.0209,0,0,1,12.4352-1.6463C94.9855,259.2949,98.2373,259.322,101.4888,259.322Zm-4.33,6.3073c-2.0416,0-4.0839.0332-6.1246-.0079a29.448,29.448,0,0,0-8.6021,1.06c-4.5861,1.2879-8.2985,3.7278-10.4807,8.1317a21.7976,21.7976,0,0,0-1.9841,9.01c-.0242.6194.2929.613.74.6122,4.9459-.009,9.8919-.0288,14.8375.0046a30.6522,30.6522,0,0,0,6.8423-.6877c4.452-.9827,8.3526-2.8971,10.98-6.8114a19.6721,19.6721,0,0,0,2.9519-10.4672c.0271-.6443-.0728-.8764-.7926-.8641C102.7375,265.6577,99.9478,265.6293,97.1586,265.6293Z"/><path class="cls-2" d="M311.6041,290.7076c-8.6886,0-17.3771-.011-26.0655.02-.7451.0026-.8624-.2125-.8693-.901a41.6607,41.6607,0,0,1,1.6447-13.2895c2.6457-8.2409,8.3817-13.2094,16.5584-15.5718a44.7914,44.7914,0,0,1,12.2592-1.6315c7.5374-.0408,15.0754-.0025,22.613-.0268.6867-.0022.9513.1284.922.878-.0607,1.552-.0541,3.1093-.0013,4.6618.0223.6569-.1671.8-.8084.7985-8.3145-.0238-16.63-.0957-24.9431.0154a21.9628,21.9628,0,0,0-13.07,3.9262c-3.5439,2.5982-5.2954,6.2548-5.9978,10.4895a27.1534,27.1534,0,0,0-.3388,3.863c-.0081.3761.0775.5349.4641.4944a5.8152,5.8152,0,0,1,.6038-.0035q21.5774,0,43.1548-.0194c.7681-.0014.969.1868.9373.944-.0639,1.5229-.0575,3.0517-.0014,4.5753.0248.6759-.2008.7931-.8237.7916Q324.7232,290.6907,311.6041,290.7076Z"/><path class="cls-2" d="M222.4911,259.322c8.6871,0,17.3742.0112,26.0612-.0195.765-.0027.9632.1844.9314.9408-.065,1.5513-.0531,3.1084-.003,4.6609.02.6243-.1736.741-.7617.7392-6.99-.0218-13.98-.0026-20.97-.0315-.7116-.003-.8965.1606-.8937.8864.0294,7.77.004,15.541.04,23.3113.0037.7892-.22.9315-.9472.9161q-3.45-.0732-6.903-.001c-.7526.0153-1.0044-.1388-1-.9634.0366-7.7416.009-15.4834.0417-23.225.0032-.7619-.1807-.93-.9313-.9262-6.9035.0327-13.8073.0025-20.7108.0413-.8263.0046-.985-.2515-.9571-1.0008.0558-1.4945.0533-2.9938,0-4.4884-.0244-.6845.1759-.8577.8561-.8558Q209.4172,259.3418,222.4911,259.322Z"/><path class="cls-2" d="M271.48,275.1318c0,4.92-.0161,9.8395.018,14.759.0049.7026-.21.8416-.86.8316-2.415-.037-4.831-.0286-7.2462-.0039-.5305.0054-.7342-.095-.7331-.6919q.03-14.9749.0011-29.95c-.0012-.607.1645-.7762.7691-.7676,2.3862.0339,4.7738.0417,7.16-.0032.7086-.0134.9143.1644.9093.8942C271.4637,265.1772,271.48,270.1545,271.48,275.1318Z"/><path class="cls-1" d="M67.1143,343.7919a12.2633,12.2633,0,0,1-4.7736-5.1291,16.7015,16.7015,0,0,1-1.6943-7.6935v-10.771a16.7022,16.7022,0,0,1,1.6943-7.6936,12.353,12.353,0,0,1,4.7736-5.1426,13.7534,13.7534,0,0,1,7.14-1.822,13.39,13.39,0,0,1,6.1856,1.4441,13.0589,13.0589,0,0,1,4.72,4.09,15.38,15.38,0,0,1,2.5683,6.1279H82.1074a8.7734,8.7734,0,0,0-1.7077-3.28,8.3749,8.3749,0,0,0-2.81-2.2271,7.8556,7.8556,0,0,0-7.53.3779,7.6978,7.6978,0,0,0-2.797,3.2529,11.2265,11.2265,0,0,0-.9951,4.8726v10.771a11.2486,11.2486,0,0,0,.9951,4.859,7.384,7.384,0,0,0,6.9922,4.4,7.9863,7.9863,0,0,0,3.3484-.7289A7.8817,7.8817,0,0,0,80.4,337.34a8.578,8.578,0,0,0,1.7077-3.4016h5.6207a15.2713,15.2713,0,0,1-2.5817,6.128,13.1687,13.1687,0,0,1-4.7333,4.09,13.3248,13.3248,0,0,1-6.1587,1.4445A13.8337,13.8337,0,0,1,67.1143,343.7919Z"/><path class="cls-1" d="M106.0049,305.9448h5.4862v39.2508h-5.4862Zm3.4153,17.3037h21.703v5.2372H109.42Zm18.7986-17.3037h5.4862v39.2508h-5.4862Z"/><path class="cls-1" d="M159.8886,345.1956h-5.4861V305.9448h5.4861Z"/><path class="cls-1" d="M186.2469,343.7919a12.263,12.263,0,0,1-4.7735-5.1291,16.7,16.7,0,0,1-1.6943-7.6935v-10.771a16.7009,16.7009,0,0,1,1.6943-7.6936,12.3527,12.3527,0,0,1,4.7735-5.1426,13.7541,13.7541,0,0,1,7.14-1.822,13.39,13.39,0,0,1,6.1856,1.4441,13.06,13.06,0,0,1,4.72,4.09,15.38,15.38,0,0,1,2.5683,6.1279H201.24a8.7722,8.7722,0,0,0-1.7078-3.28,8.3745,8.3745,0,0,0-2.81-2.2271,7.8557,7.8557,0,0,0-7.53.3779,7.6975,7.6975,0,0,0-2.7969,3.2529,11.2265,11.2265,0,0,0-.9951,4.8726v10.771a11.2486,11.2486,0,0,0,.9951,4.859,7.3837,7.3837,0,0,0,6.9922,4.4,7.9859,7.9859,0,0,0,3.3483-.7289,7.88,7.88,0,0,0,2.7969-2.1594,8.5768,8.5768,0,0,0,1.7078-3.4016h5.6207a15.2714,15.2714,0,0,1-2.5818,6.128,13.1684,13.1684,0,0,1-4.7332,4.09,13.3248,13.3248,0,0,1-6.1587,1.4445A13.8343,13.8343,0,0,1,186.2469,343.7919Z"/><path class="cls-1" d="M234.7115,305.9448h4.6795l14.4148,39.2508H247.89l-10.8384-31.6651-10.838,31.6651h-5.9163Zm-7.7721,25.4024h20.5735v5.2368H226.9394Z"/><path class="cls-1" d="M295.3184,324.0583v6.8569a16.7846,16.7846,0,0,1-1.6943,7.7072,12.2777,12.2777,0,0,1-4.8,5.1559,13.9526,13.9526,0,0,1-7.1939,1.8223,14.915,14.915,0,0,1-7.2749-1.7142,12.0067,12.0067,0,0,1-4.8544-4.8457,14.8331,14.8331,0,0,1-1.7211-7.2616V320.1983a16.706,16.706,0,0,1,1.6943-7.6936,12.3019,12.3019,0,0,1,4.8006-5.1426,13.9512,13.9512,0,0,1,7.1939-1.822,13.4724,13.4724,0,0,1,6.199,1.4441,13.1463,13.1463,0,0,1,4.7468,4.09,15.279,15.279,0,0,1,2.5818,6.1279h-5.9435a8.4774,8.4774,0,0,0-1.6406-3.3879,7.826,7.826,0,0,0-2.7161-2.1595,7.428,7.428,0,0,0-3.2274-.7424,7.7591,7.7591,0,0,0-4.2492,1.1608,7.6324,7.6324,0,0,0-2.8236,3.2529,11.2251,11.2251,0,0,0-.9953,4.8726v11.5808a9.2423,9.2423,0,0,0,1.0221,4.4406,7.27,7.27,0,0,0,2.891,2.956,8.6459,8.6459,0,0,0,4.3166,1.0527,8.1214,8.1214,0,0,0,4.2488-1.0931,7.2122,7.2122,0,0,0,2.824-3.172,11.3441,11.3441,0,0,0,.9949-4.94v-1.701h-7.9334v-5.2641Z"/><path class="cls-1" d="M319.8619,343.8055a12.2391,12.2391,0,0,1-4.8275-5.0753,16.2188,16.2188,0,0,1-1.7079-7.599v-11.122a16.22,16.22,0,0,1,1.7079-7.599,12.24,12.24,0,0,1,4.8275-5.075,15.3664,15.3664,0,0,1,14.4147,0,12.2455,12.2455,0,0,1,4.8274,5.075,16.2277,16.2277,0,0,1,1.7076,7.599v11.122a16.226,16.226,0,0,1-1.7076,7.599,12.2451,12.2451,0,0,1-4.8274,5.0753,15.3664,15.3664,0,0,1-14.4147,0Zm11.47-4.7243a7.3474,7.3474,0,0,0,2.85-3.1043,10.2551,10.2551,0,0,0,1.0085-4.6566v-11.5a10.2563,10.2563,0,0,0-1.0085-4.6566,7.3482,7.3482,0,0,0-2.85-3.1046,8.8571,8.8571,0,0,0-8.5253,0,7.3484,7.3484,0,0,0-2.8509,3.1046,10.26,10.26,0,0,0-1.0085,4.6566v11.5a10.259,10.259,0,0,0,1.0085,4.6566,7.3476,7.3476,0,0,0,2.8509,3.1043,8.8579,8.8579,0,0,0,8.5253,0Z"/></g></svg>